<svg width="512" height="512" viewBox="0 0 512 512" fill="none" xmlns="http://www.w3.org/2000/svg">
<rect width="512" height="512" fill="#15212F"/>
<g clip-path="url(#clip0_990_14936)">
<g clip-path="url(#clip1_990_14936)">
<path fill-rule="evenodd" clip-rule="evenodd" d="M347.428 121.462C347.428 118.919 345.367 116.857 342.824 116.857L283.461 116.857C280.918 116.857 278.857 118.919 278.857 121.462L278.857 180.824C278.857 183.367 280.918 185.429 283.461 185.429H297.109C299.652 185.429 301.714 183.367 301.714 180.824V144.319C301.714 141.776 303.775 139.715 306.318 139.715L342.824 139.715C345.367 139.715 347.428 137.653 347.428 135.11V121.462ZM380.885 346.326C384.482 349.923 384.481 355.753 380.885 359.35L361.35 378.885C357.753 382.482 351.922 382.482 348.326 378.885L295.904 326.463C290.102 320.662 280.183 324.771 280.183 332.975V407.111C280.183 412.197 276.06 416.32 270.974 416.32H243.346C238.26 416.32 234.137 412.197 234.137 407.111V332.974C234.137 324.769 224.218 320.66 218.416 326.462L165.994 378.884C162.397 382.481 156.567 382.481 152.97 378.884L133.435 359.349C129.838 355.752 129.838 349.921 133.435 346.325L185.855 293.905C191.656 288.103 187.548 278.184 179.343 278.184H105.209C100.123 278.184 96 274.061 96 268.975V241.347C96 236.261 100.123 232.138 105.209 232.138H179.346C187.55 232.138 191.659 222.218 185.857 216.417L133.435 163.995C129.839 160.398 129.839 154.567 133.435 150.971L152.971 131.435C156.567 127.839 162.398 127.839 165.994 131.435L380.885 346.326ZM329.176 231.145C326.633 231.145 324.572 229.083 324.572 226.54V212.892C324.572 210.349 326.633 208.288 329.176 208.288H365.682C368.225 208.288 370.286 206.226 370.286 203.683V167.178C370.286 164.635 372.348 162.573 374.891 162.573H388.539C391.082 162.573 393.143 164.635 393.143 167.178V226.54C393.143 229.083 391.082 231.145 388.539 231.145H329.176Z" fill="#0F87FF"/>
</g>
</g>
<defs>
<clipPath id="clip0_990_14936">
<rect width="320" height="320" fill="white" transform="translate(96 94)"/>
</clipPath>
<clipPath id="clip1_990_14936">
<rect width="320" height="320" fill="white" transform="translate(96 94)"/>
</clipPath>
</defs>
</svg>
