<svg width="24" height="24" viewBox="0 0 24 24" fill="none" xmlns="http://www.w3.org/2000/svg">
<g id="squidAI_Logo-token/Symbol" clip-path="url(#clip0_4543_62657)">
<path id="Union" fill-rule="evenodd" clip-rule="evenodd" d="M18.8574 2.0577C18.8574 1.86835 18.7039 1.71484 18.5145 1.71484H14.0574C13.8681 1.71484 13.7146 1.86835 13.7146 2.0577V6.51485C13.7146 6.7042 13.8681 6.8577 14.0574 6.8577L15.0859 6.8577C15.2753 6.8577 15.4288 6.7042 15.4288 6.51485L15.4288 3.77191C15.4288 3.58255 15.5823 3.42905 15.7716 3.42905L18.5145 3.42905C18.7039 3.42905 18.8574 3.27555 18.8574 3.08619V2.0577ZM21.2125 18.7881C21.4803 19.0559 21.4803 19.49 21.2125 19.7578L19.7579 21.2124C19.4901 21.4802 19.056 21.4802 18.7882 21.2124L14.885 17.3092C14.453 16.8772 13.7144 17.1832 13.7144 17.7941V23.3142C13.7144 23.693 13.4074 24 13.0287 24H10.9715C10.5928 24 10.2858 23.693 10.2858 23.3142V17.794C10.2858 17.1831 9.54718 16.8772 9.1152 17.3092L5.21189 21.2125C4.9441 21.4803 4.50993 21.4803 4.24214 21.2125L2.78752 19.7579C2.51974 19.4901 2.51974 19.0559 2.78752 18.7881L6.69089 14.8848C7.12287 14.4528 6.81693 13.7142 6.20602 13.7142L0.685714 13.7142C0.307005 13.7142 0 13.4072 0 13.0285V10.9713C0 10.5926 0.307005 10.2856 0.685714 10.2856L6.20587 10.2856C6.81677 10.2856 7.12271 9.54698 6.69074 9.11501L2.78735 5.21161C2.51956 4.94383 2.51956 4.50966 2.78735 4.24187L4.24197 2.78725C4.50975 2.51946 4.94392 2.51946 5.21171 2.78725L21.2125 18.7881ZM17.4855 10.2862C17.2961 10.2862 17.1426 10.1327 17.1426 9.94332V8.91483C17.1426 8.72547 17.2961 8.57197 17.4855 8.57197H20.2284C20.4177 8.57197 20.5712 8.41847 20.5712 8.22911V5.48618C20.5712 5.29682 20.7247 5.14332 20.9141 5.14332L21.9426 5.14332C22.132 5.14332 22.2855 5.29682 22.2855 5.48618V9.94332C22.2855 10.1327 22.132 10.2862 21.9426 10.2862H17.4855Z" fill="#161616"/>
</g>
<defs>
<clipPath id="clip0_4543_62657">
<rect width="24" height="24" fill="white"/>
</clipPath>
</defs>
</svg>
